<?xml version="1.0" standalone="no"?>
<!DOCTYPE svg PUBLIC "-//W3C//DTD SVG 20010904//EN"
 "http://www.w3.org/TR/2001/REC-SVG-20010904/DTD/svg10.dtd">
<svg version="1.0" xmlns="http://www.w3.org/2000/svg"
 width="443.000000pt" height="443.000000pt" viewBox="0 0 443.000000 443.000000"
 preserveAspectRatio="xMidYMid meet">
<metadata>
Created by potrace 1.14, written by Peter Selinger 2001-2017
</metadata>
<g transform="translate(0.000000,443.000000) scale(0.100000,-0.100000)"
fill="#000000" stroke="none">
<path d="M649 3495 c-3 -2 -61 -6 -129 -9 -89 -3 -134 -9 -155 -20 -29 -16
-29 -16 -5 -15 14 0 57 -3 95 -8 39 -4 111 -8 160 -8 50 0 92 -3 95 -7 3 -4
19 -7 35 -7 218 2 351 -3 397 -15 l53 -15 -73 3 c-55 1 -75 -1 -81 -12 -5 -9
-17 -13 -29 -10 -13 4 -23 0 -27 -10 -4 -12 -8 -13 -17 -4 -17 17 -61 16 -55
-2 3 -8 -2 -16 -14 -19 -14 -4 -19 0 -19 15 0 14 -5 18 -15 14 -8 -3 -15 -1
-15 5 0 6 -7 3 -16 -5 -8 -9 -20 -16 -25 -16 -5 0 -9 -15 -9 -34 0 -19 -4 -38
-10 -41 -5 -3 -10 1 -10 10 0 23 -25 13 -26 -11 0 -10 -4 -29 -8 -42 -7 -22
-9 -22 -26 -7 -14 13 -37 17 -92 16 -50 0 -68 3 -57 9 9 5 30 11 48 12 17 1
31 6 31 11 0 5 11 7 25 5 19 -4 23 -2 15 7 -5 6 -8 14 -5 17 3 3 -1 11 -10 18
-8 7 -15 20 -15 29 0 10 -3 12 -8 5 -4 -6 -15 -13 -24 -17 -12 -4 -16 -1 -15
14 1 10 7 19 14 19 7 0 13 5 13 11 0 6 -8 8 -19 4 -11 -3 -22 -2 -25 3 -8 13
-56 2 -56 -12 0 -7 5 -17 12 -24 6 -6 9 -15 5 -18 -3 -4 -13 1 -22 10 -9 9
-24 16 -33 17 -11 0 -13 2 -4 6 10 4 9 8 -5 19 -27 20 -36 17 -29 -11 4 -14 2
-25 -4 -25 -5 0 -9 -16 -8 -35 1 -19 5 -32 10 -29 4 3 8 -2 8 -10 0 -9 -4 -16
-10 -16 -5 0 -10 -13 -10 -30 0 -16 5 -30 11 -30 6 0 8 7 5 16 -3 9 -1 14 5
12 6 -2 11 -8 11 -13 0 -23 24 -35 69 -35 26 0 73 -7 104 -15 49 -12 67 -12
138 0 45 8 84 11 87 7 3 -4 14 -8 26 -9 11 -1 34 -8 50 -14 26 -12 19 -13 -81
-21 -70 -5 -118 -5 -132 2 -15 6 -23 6 -23 0 0 -6 -45 -10 -111 -10 -113 0
-139 -8 -139 -43 0 -15 -48 -27 -125 -32 -62 -4 -95 -15 -106 -36 -14 -27 -2
-41 31 -34 15 3 31 2 34 -4 4 -6 13 -8 21 -4 9 3 22 0 30 -7 8 -7 22 -9 32 -6
15 6 32 -8 33 -28 0 -4 -56 -5 -124 -1 -116 7 -124 6 -129 -11 -4 -17 -5 -17
-6 -1 -1 21 -21 23 -21 2 0 -22 -37 -18 -43 5 -4 15 -14 20 -36 20 -17 0 -31
-5 -31 -11 0 -6 6 -9 13 -6 7 3 21 -1 32 -9 16 -12 16 -14 3 -14 -9 0 -20 -5
-23 -10 -10 -16 37 -29 64 -18 39 14 78 19 200 25 81 4 112 2 107 -6 -4 -7 1
-11 13 -11 12 0 21 5 21 10 0 21 30 9 36 -15 3 -14 14 -25 23 -26 10 0 7 -4
-9 -10 -14 -6 -44 -8 -67 -4 -50 7 -57 -7 -14 -26 27 -12 28 -14 14 -36 -9
-13 -11 -23 -5 -23 6 0 12 6 15 13 3 9 7 9 20 -1 12 -11 20 -11 38 -2 17 10
24 9 31 -1 7 -10 11 -11 14 -2 4 8 13 7 34 -5 25 -15 26 -18 12 -28 -14 -10
-15 -15 -4 -25 10 -11 12 -9 13 7 0 16 2 15 10 -5 12 -30 -6 -55 -22 -31 -8
11 -12 12 -16 2 -2 -6 -9 -10 -14 -6 -5 3 -9 0 -9 -5 0 -6 -4 -11 -10 -11 -5
0 -10 11 -10 25 0 16 6 25 15 25 8 0 15 4 15 9 0 10 -58 23 -71 15 -14 -8 -10
-24 6 -24 10 0 14 -9 13 -25 -2 -23 -3 -23 -20 -8 -10 9 -18 22 -18 28 0 9
-31 12 -115 11 -63 -1 -115 -4 -115 -7 0 -4 -10 -10 -23 -13 -21 -7 -21 -7 -2
-16 17 -7 17 -9 3 -9 -10 -1 -18 -6 -18 -12 0 -6 -13 -24 -30 -39 -16 -15 -30
-33 -30 -38 0 -14 62 -44 69 -33 11 16 49 22 58 9 4 -8 19 -18 31 -24 22 -9
24 -16 26 -99 3 -94 -4 -115 -35 -115 -31 0 -21 -14 22 -32 35 -15 40 -21 37
-45 -2 -21 -14 -34 -45 -51 -45 -25 -57 -56 -25 -64 10 -3 40 1 67 9 28 8 66
16 85 18 19 2 55 11 79 19 48 18 98 20 120 7 11 -7 5 -14 -25 -29 -21 -10 -55
-22 -75 -26 -20 -3 -44 -15 -53 -25 -17 -18 -15 -19 34 -30 28 -6 60 -11 70
-11 11 0 20 -4 20 -8 0 -20 -52 -33 -140 -35 -94 -2 -95 -2 -104 -30 -18 -51
-2 -61 115 -69 130 -9 151 -14 147 -36 -2 -13 -15 -18 -51 -20 l-48 -3 26 -31
c21 -24 23 -33 13 -40 -9 -7 -7 -8 6 -4 11 4 22 2 26 -3 4 -7 16 -5 33 4 16 8
27 10 27 3 0 -5 7 -8 15 -4 8 3 26 0 40 -6 21 -9 22 -12 9 -26 -17 -17 -9 -30
24 -35 12 -2 28 -9 34 -15 7 -7 18 -12 25 -12 23 0 15 -38 -9 -42 -13 -2 -22
-9 -21 -15 3 -16 -70 -40 -75 -24 -7 21 -22 11 -22 -15 0 -25 1 -25 48 -18 64
10 293 11 299 1 2 -4 9 -5 14 -2 11 8 12 -15 0 -34 -5 -8 -18 -12 -31 -8 -13
3 -23 0 -27 -9 -5 -13 -8 -12 -24 2 -21 19 -54 11 -45 -11 4 -10 -1 -15 -14
-15 -11 0 -20 6 -20 14 0 22 -34 25 -59 5 -12 -10 -22 -26 -21 -36 4 -30 0
-43 -10 -43 -5 0 -10 7 -10 15 0 9 -6 12 -15 9 -9 -4 -15 -19 -15 -35 0 -30 0
-30 72 -32 21 -1 25 -4 16 -14 -8 -10 -6 -17 8 -28 10 -8 22 -15 27 -16 43 -9
58 -21 46 -35 -16 -19 -29 -18 -29 4 0 13 -2 14 -9 3 -5 -8 -14 -10 -21 -6 -7
4 -16 1 -22 -6 -7 -11 -11 -11 -15 -1 -2 6 -9 12 -14 12 -6 0 -7 -5 -4 -10 3
-6 -3 -10 -14 -10 -12 0 -21 -4 -21 -10 0 -5 -9 -10 -20 -10 -13 0 -24 -10
-30 -25 -7 -18 -14 -23 -26 -18 -12 4 -15 3 -10 -5 4 -7 1 -12 -7 -12 -8 0
-18 -7 -21 -16 -4 -9 -13 -14 -21 -10 -8 3 -15 1 -15 -3 0 -5 -19 -20 -42 -34
-24 -14 -68 -48 -98 -75 -46 -42 -53 -52 -41 -64 11 -10 14 -10 18 0 3 6 10
12 17 12 7 0 30 11 50 25 38 26 62 33 51 15 -4 -6 5 -10 19 -10 14 0 26 5 26
12 0 6 8 4 19 -6 18 -17 21 -16 63 7 24 14 42 31 42 40 -1 12 5 15 25 11 14
-3 40 0 56 7 17 7 36 11 43 10 7 -1 15 5 18 14 3 8 15 15 26 15 10 0 17 -4 13
-9 -8 -14 14 -24 28 -13 7 5 24 12 40 16 20 5 27 3 27 -8 0 -30 21 -27 34 5 8
20 15 27 18 18 4 -11 8 -11 24 3 10 9 30 16 44 16 50 -1 102 9 109 20 4 7 12
8 20 2 8 -4 20 -6 28 -3 7 3 13 0 13 -6 0 -6 9 -11 19 -11 11 0 22 -8 26 -19
5 -16 11 -18 43 -10 20 4 44 17 54 29 10 12 23 18 32 14 9 -4 16 -1 16 6 0 8
8 10 23 7 12 -3 49 0 83 7 59 13 95 8 109 -13 3 -6 16 -11 29 -11 12 0 26 -4
31 -9 23 -20 154 -65 195 -67 25 -1 77 -14 115 -29 112 -43 247 -65 404 -65
120 0 215 -9 274 -26 9 -3 30 -19 46 -36 l28 -30 7 26 c4 16 11 24 17 20 6 -3
43 -7 83 -8 39 -2 121 -6 183 -11 73 -5 117 -4 125 2 11 8 249 19 308 14 105
-9 141 -13 175 -23 56 -17 166 -18 191 -3 13 9 26 10 37 3 20 -11 24 6 5 19
-18 10 -35 14 -96 17 -57 3 -88 20 -56 29 11 3 57 4 104 3 47 -1 93 2 103 6
22 11 22 48 0 49 -11 0 -13 3 -5 6 17 7 15 23 -3 23 -8 0 -15 5 -15 10 0 7
-20 10 -47 9 -73 -2 -93 -9 -93 -30 0 -20 -15 -26 -24 -10 -4 5 0 11 6 14 20
7 -2 24 -39 32 -32 6 -39 1 -34 -28 2 -13 -30 -20 -42 -8 -8 8 -6 15 9 25 10
8 16 17 12 21 -10 10 -68 -5 -68 -17 0 -6 7 -8 15 -4 11 4 15 -1 15 -19 0 -16
6 -25 16 -25 8 0 12 -5 8 -11 -3 -6 -17 -9 -30 -6 -18 3 -24 0 -24 -14 0 -16
8 -19 47 -19 25 0 44 -2 42 -4 -10 -9 -126 -14 -139 -6 -11 7 -8 10 13 10 22
0 27 4 27 25 0 17 6 25 18 26 14 0 14 2 -3 9 -32 14 -48 12 -41 -5 7 -20 4
-19 -23 4 l-22 20 28 3 c24 3 28 7 25 30 -1 14 2 30 8 33 18 11 63 13 86 5 13
-5 26 -4 33 3 9 9 14 8 22 -3 9 -12 10 -12 5 3 -3 10 -6 21 -6 23 0 2 -8 4
-17 4 -18 0 -13 10 9 15 37 9 58 18 58 26 0 12 -37 12 -44 0 -8 -12 -146 24
-146 38 0 17 118 29 263 28 142 -2 157 0 157 15 0 11 5 15 15 12 9 -4 15 0 15
10 0 9 8 16 20 16 13 0 20 -7 20 -20 0 -20 14 -27 24 -11 3 4 25 4 50 -2 45
-10 76 -5 76 12 0 5 -10 11 -22 13 -41 6 -28 25 27 38 55 13 72 33 36 45 -10
3 -25 3 -34 0 -8 -4 -18 -1 -22 5 -4 6 -20 8 -41 4 -20 -4 -34 -2 -34 4 0 5
-11 7 -25 4 -16 -3 -25 0 -25 8 0 8 -8 10 -24 6 -26 -6 -37 0 -30 18 3 9 38
12 123 11 100 -1 117 1 105 12 -8 8 -25 11 -44 8 -20 -4 -30 -1 -30 7 0 10 -2
10 -9 0 -6 -10 -20 -12 -46 -8 -40 7 -81 25 -56 26 11 0 11 3 1 15 -12 15 -4
59 10 50 4 -3 11 3 15 13 6 16 7 16 21 -2 7 -11 17 -17 20 -13 8 8 -21 37 -38
37 -7 0 -20 5 -28 11 -12 8 -12 9 5 7 21 -3 22 14 9 122 -4 39 -2 48 18 66 13
11 29 19 35 17 6 -2 14 1 17 6 5 7 15 7 33 0 18 -6 30 -6 39 2 8 6 14 8 14 3
0 -5 5 -1 11 10 9 14 7 24 -10 45 -12 14 -28 40 -36 58 -22 48 -89 63 -176 39
-16 -5 -29 -3 -33 3 -10 15 -49 14 -65 -1 -10 -11 -12 -10 -9 2 2 11 -6 15
-27 15 -27 0 -30 -3 -27 -27 4 -31 3 -32 -31 -19 -19 8 -23 15 -20 35 8 41 54
63 99 46 19 -8 27 -4 47 21 29 37 54 42 88 18 26 -18 27 -18 44 1 10 11 16 20
14 21 -2 0 -13 3 -24 6 -11 3 -50 6 -86 8 -72 3 -89 8 -89 31 0 8 -5 14 -12
14 -6 0 -8 3 -5 6 4 4 53 8 110 9 56 1 112 5 124 9 32 10 35 32 7 51 -20 13
-32 14 -62 5 -20 -5 -50 -10 -65 -10 -15 0 -45 -9 -67 -20 -42 -21 -115 -27
-125 -9 -4 5 -21 8 -38 5 l-32 -5 35 13 c19 7 52 20 72 29 21 9 42 17 47 17
13 0 86 74 94 94 3 8 2 16 -3 18 -9 3 -19 70 -22 146 -1 17 -6 32 -11 32 -5 0
-4 7 3 15 7 8 17 12 23 8 6 -4 7 -1 3 6 -5 8 0 14 13 18 24 6 27 18 9 27 -7 3
-3 3 10 0 14 -3 22 -1 22 8 1 9 5 7 14 -4 16 -21 36 -23 36 -4 0 8 7 17 17 20
14 6 14 9 -6 27 -14 13 -28 18 -42 14 -18 -6 -19 -4 -10 13 6 11 16 23 23 25
28 11 -17 28 -57 21 -22 -3 -47 -7 -55 -8 -8 -1 -27 -7 -41 -13 -34 -15 -61
-18 -81 -9 -11 5 -28 1 -45 -12 -15 -10 -34 -17 -41 -15 -7 3 -20 -3 -27 -13
-11 -15 -14 -16 -15 -4 0 10 -12 16 -36 18 -20 1 -40 5 -45 8 -15 9 -10 34 9
41 19 7 57 43 45 43 -16 0 41 33 61 35 11 1 24 3 28 4 4 0 4 9 1 18 -5 12 -2
15 10 10 10 -4 16 -2 14 5 -1 8 11 11 36 9 27 -2 37 1 37 12 0 10 -11 14 -37
13 -31 -1 -38 3 -41 19 -4 33 14 52 36 38 11 -6 23 -8 28 -3 5 4 18 10 28 12
25 4 31 56 9 80 -20 22 -52 23 -59 3 -4 -8 -12 -15 -20 -15 -8 0 -14 7 -14 15
0 17 -45 21 -55 5 -5 -8 -11 -7 -20 0 -8 7 -19 9 -25 5 -6 -4 -17 -1 -25 5
-12 10 -19 8 -35 -11 -11 -14 -19 -18 -20 -11 0 7 -4 11 -9 7 -6 -3 -19 5 -31
17 -15 16 -17 24 -8 27 7 2 16 8 19 13 3 5 22 10 42 11 20 2 39 5 42 9 4 4 13
4 21 1 8 -3 17 5 24 21 6 17 14 24 25 20 9 -4 15 -1 15 8 0 8 12 21 28 29 15
7 34 19 42 27 8 7 49 37 92 68 42 30 79 62 82 71 8 20 -11 43 -22 27 -7 -10
-28 -21 -45 -22 -4 -1 -22 -12 -38 -26 -33 -28 -54 -34 -46 -12 4 11 -6 13
-46 11 -75 -3 -114 -24 -108 -59 1 -5 -5 -6 -12 -3 -8 3 -32 1 -53 -4 -22 -6
-48 -12 -58 -13 -11 -1 -22 -8 -24 -14 -2 -7 -12 -12 -23 -12 -12 0 -16 5 -13
15 7 16 -16 21 -32 6 -5 -4 -21 -11 -36 -15 -21 -5 -28 -3 -28 9 0 26 -28 17
-38 -12 -8 -22 -11 -24 -12 -8 -1 19 -1 19 -19 -2 -13 -15 -30 -23 -52 -23
-29 0 -52 -2 -91 -9 -5 0 -8 -9 -8 -18 0 -13 -3 -14 -12 -5 -7 7 -22 12 -34
12 -12 0 -27 7 -34 15 -7 8 -16 13 -20 10 -4 -3 -10 2 -14 10 -9 25 -64 18
-93 -11 -14 -14 -28 -23 -31 -20 -3 3 -11 1 -18 -5 -8 -6 -21 -9 -29 -5 -9 3
-36 1 -61 -4 -36 -8 -55 -7 -102 9 -31 10 -84 27 -117 37 -33 10 -78 26 -100
36 -45 20 -81 25 -55 8 20 -13 -38 -4 -103 17 -26 8 -96 18 -155 23 -90 6
-117 12 -172 39 l-65 31 105 -2 c107 -2 139 10 65 24 -22 5 -144 7 -271 5
l-231 -2 -25 29 -25 29 -7 -27 c-5 -21 -11 -26 -24 -21 -9 4 -55 8 -102 9 -47
2 -161 10 -255 19 -227 21 -577 27 -582 10 -3 -7 3 -13 14 -13 14 0 15 -2 4
-9 -10 -7 -20 -2 -33 15 -18 22 -38 30 -49 19z m3 -187 c-7 -7 -12 -8 -12 -2
0 14 12 26 19 19 2 -3 -1 -11 -7 -17z m136 -86 c2 -7 -3 -12 -12 -12 -9 0 -16
7 -16 16 0 17 22 14 28 -4z m41 -8 c3 -16 1 -17 -13 -5 -19 16 -21 34 -3 29 6
-3 14 -13 16 -24z m-44 -261 c-49 -7 -101 -16 -115 -21 -31 -10 -227 -17 -219
-7 10 9 122 34 150 33 13 -1 30 -6 37 -11 8 -6 12 -6 12 2 0 6 11 11 23 11 13
0 27 3 31 7 3 4 28 6 54 5 26 -1 54 2 61 7 10 6 22 6 35 -2 18 -9 7 -13 -69
-24z m3075 17 c0 -5 -5 -10 -11 -10 -5 0 -7 5 -4 10 3 6 8 10 11 10 2 0 4 -4
4 -10z m-3330 -101 c0 -6 -4 -7 -10 -4 -5 3 -10 11 -10 16 0 6 5 7 10 4 6 -3
10 -11 10 -16z m20 -79 c0 -5 -5 -10 -11 -10 -5 0 -7 5 -4 10 3 6 8 10 11 10
2 0 4 -4 4 -10z m3520 -90 c0 -5 -2 -10 -4 -10 -3 0 -8 5 -11 10 -3 6 -1 10 4
10 6 0 11 -4 11 -10z m-3660 -30 c0 -5 -2 -10 -4 -10 -3 0 -8 5 -11 10 -3 6
-1 10 4 10 6 0 11 -4 11 -10z m3335 -26 c56 -5 118 -14 121 -16 1 -2 5 -15 9
-31 6 -22 4 -27 -12 -27 -42 0 -56 -41 -23 -70 20 -17 19 -18 -24 -29 -25 -6
-47 -11 -49 -11 -3 0 -7 14 -10 30 -4 18 -13 30 -22 30 -8 0 -23 16 -32 35
-18 39 -55 55 -83 37 -10 -6 -22 -7 -31 -1 -8 5 -35 9 -60 9 -45 0 -59 10 -59
40 0 10 203 19 230 11 8 -2 29 -5 45 -7z m-332 -8 c4 -10 1 -13 -9 -9 -15 6
-19 23 -5 23 5 0 11 -7 14 -14z m-2503 -107 c0 -14 -7 -19 -27 -20 -16 0 -44
-2 -63 -5 -19 -2 -57 -4 -83 -3 -45 0 -48 -2 -62 -35 -9 -20 -22 -36 -30 -36
-10 0 -15 -10 -15 -30 0 -20 5 -30 15 -30 8 0 15 -4 15 -9 0 -8 -48 -1 -98 15
-24 7 -27 41 -3 36 28 -6 6 43 -26 58 -18 8 -33 20 -33 26 0 14 28 26 41 18 6
-3 16 -1 23 5 24 20 97 29 224 29 113 0 122 -2 122 -19z m3003 -664 c15 -4 27
-11 27 -17 0 -5 8 -7 18 -4 25 8 51 -33 30 -48 -8 -6 -13 -18 -10 -26 4 -13 3
-13 -11 -2 -16 13 -37 9 -37 -7 0 -13 63 -40 98 -43 18 -1 32 -6 32 -10 0 -8
-17 -12 -35 -8 -39 8 -110 -1 -126 -16 -17 -16 -19 -16 -19 -1 0 10 -4 17 -10
17 -5 0 -7 13 -3 30 3 19 1 30 -6 30 -6 0 -14 0 -18 0 -5 0 -9 -4 -9 -10 -4
-27 -8 -21 -13 19 -8 56 -34 77 -73 57 -15 -8 -30 -10 -35 -5 -5 5 -33 11 -62
13 -60 5 -85 21 -61 36 16 11 278 6 323 -5z m-53 -179 c0 -9 -12 -14 -35 -14
-31 0 -43 7 -31 19 3 2 18 5 35 6 21 1 31 -2 31 -11z m-133 -92 c-2 -3 -12 -2
-21 2 -16 6 -16 8 1 24 17 16 18 16 21 -2 2 -11 2 -22 -1 -24z m92 31 c2 -3
-8 -5 -22 -5 -15 0 -27 -4 -27 -10 0 -5 -6 -10 -14 -10 -9 0 -14 9 -13 20 1
18 6 20 36 15 19 -3 37 -8 40 -10z m21 -25 c0 -5 -4 -10 -10 -10 -5 0 -10 5
-10 10 0 6 5 10 10 10 6 0 10 -4 10 -10z m-2725 -40 c3 -5 -3 -10 -14 -10 -12
0 -24 0 -28 -1 -4 0 -9 4 -11 10 -5 14 45 15 53 1z m2940 -69 c-17 -15 -102
-31 -158 -30 -30 1 -61 -2 -68 -7 -8 -5 -38 -7 -67 -5 -29 1 -58 -1 -65 -6 -8
-6 -21 -5 -37 3 -24 13 -24 14 20 15 56 3 85 6 130 14 19 4 47 8 63 9 15 2 30
6 34 9 3 4 40 7 82 7 43 0 71 -4 66 -9z m-3208 -37 c-3 -3 -12 -4 -19 -1 -8 3
-5 6 6 6 11 1 17 -2 13 -5z m3350 -90 c-3 -3 -12 -4 -19 -1 -8 3 -5 6 6 6 11
1 17 -2 13 -5z m-561 -86 c3 -4 -15 -8 -40 -8 -25 0 -48 5 -51 10 -4 6 11 10
40 8 25 0 48 -5 51 -10z"/>
<path d="M665 3380 c3 -5 10 -10 16 -10 5 0 9 5 9 10 0 6 -7 10 -16 10 -8 0
-12 -4 -9 -10z"/>
<path d="M720 3360 c0 -5 7 -7 15 -4 8 4 15 8 15 10 0 2 -7 4 -15 4 -8 0 -15
-4 -15 -10z"/>
<path d="M720 3330 c0 -5 5 -10 10 -10 6 0 10 5 10 10 0 6 -4 10 -10 10 -5 0
-10 -4 -10 -10z"/>
<path d="M4060 3285 c0 -8 2 -15 4 -15 2 0 6 7 10 15 3 8 1 15 -4 15 -6 0 -10
-7 -10 -15z"/>
<path d="M4181 3249 c-24 -22 -50 -39 -57 -39 -8 0 -14 -4 -14 -10 0 -5 -7
-10 -15 -10 -8 0 -15 9 -15 21 0 11 -4 18 -8 15 -5 -3 -15 4 -22 15 -19 26
-24 25 -70 -18 -32 -28 -49 -36 -76 -35 -19 1 -32 -3 -29 -8 3 -5 -3 -13 -12
-19 -21 -12 -22 -12 87 -15 69 -3 242 -24 249 -31 7 -8 31 17 31 32 0 7 9 23
20 35 22 23 26 53 10 63 -6 4 -8 10 -6 14 3 4 -3 12 -12 18 -14 8 -26 3 -61
-28z m-106 -69 c3 -5 2 -10 -4 -10 -5 0 -13 5 -16 10 -3 6 -2 10 4 10 5 0 13
-4 16 -10z"/>
<path d="M4130 3256 c0 -9 5 -16 10 -16 6 0 10 4 10 9 0 6 -4 13 -10 16 -5 3
-10 -1 -10 -9z"/>
<path d="M4105 3109 c-10 -15 3 -25 16 -12 7 7 7 13 1 17 -6 3 -14 1 -17 -5z"/>
<path d="M4201 3078 c-28 -28 -34 -31 -51 -20 -18 11 -22 9 -30 -13 -14 -36
-14 -34 22 -50 38 -15 68 -5 68 25 0 14 5 18 16 13 13 -5 15 -2 9 15 -4 13 -2
22 4 22 13 0 15 27 2 34 -5 3 -23 -9 -40 -26z m-51 -48 c0 -5 -2 -10 -4 -10
-3 0 -8 5 -11 10 -3 6 -1 10 4 10 6 0 11 -4 11 -10z"/>
<path d="M290 3090 c0 -5 5 -10 11 -10 5 0 7 5 4 10 -3 6 -8 10 -11 10 -2 0
-4 -4 -4 -10z"/>
<path d="M255 3080 c-3 -5 -1 -10 4 -10 6 0 11 5 11 10 0 6 -2 10 -4 10 -3 0
-8 -4 -11 -10z"/>
<path d="M4040 3080 c0 -5 7 -10 15 -10 8 0 15 5 15 10 0 6 -7 10 -15 10 -8 0
-15 -4 -15 -10z"/>
<path d="M4050 3050 c0 -5 5 -10 10 -10 6 0 10 5 10 10 0 6 -4 10 -10 10 -5 0
-10 -4 -10 -10z"/>
<path d="M4010 3012 c0 -12 19 -26 26 -19 2 2 -2 10 -11 17 -9 8 -15 8 -15 2z"/>
<path d="M172 2998 c3 -7 15 -15 27 -16 16 -3 22 1 19 10 -3 7 -15 15 -27 16
-16 3 -22 -1 -19 -10z"/>
<path d="M3986 2922 c-3 -3 -3 -9 0 -13 7 -12 54 -12 54 0 0 10 -47 21 -54 13z"/>
<path d="M295 2840 c-3 -5 2 -10 11 -10 16 0 16 -1 -2 -15 -15 -11 -16 -15 -4
-16 8 -1 18 -1 23 0 4 0 7 -3 7 -8 0 -4 11 -6 25 -3 22 4 26 11 25 40 -1 4
-10 6 -20 4 -11 -2 -28 2 -39 7 -13 7 -22 8 -26 1z"/>
<path d="M340 2760 c0 -5 5 -10 10 -10 6 0 10 5 10 10 0 6 -4 10 -10 10 -5 0
-10 -4 -10 -10z"/>
<path d="M434 1846 c-8 -21 -5 -24 33 -32 23 -5 32 -2 37 11 8 22 7 23 -32 31
-24 5 -33 3 -38 -10z"/>
<path d="M638 1743 c-22 -5 -23 -19 -4 -26 8 -3 16 -16 19 -29 2 -13 5 -5 6
20 0 23 0 41 -1 41 -2 -1 -11 -3 -20 -6z"/>
<path d="M670 1731 c0 -6 5 -13 10 -16 6 -3 10 1 10 9 0 9 -4 16 -10 16 -5 0
-10 -4 -10 -9z"/>
<path d="M393 1723 c-12 -2 -27 -11 -35 -20 -11 -14 -10 -15 10 -9 22 7 32 -7
12 -19 -5 -3 -7 -12 -3 -20 3 -8 0 -15 -6 -15 -6 0 -11 -4 -11 -10 0 -14 42
-12 81 4 19 7 40 11 47 9 7 -3 22 3 32 12 15 13 30 16 60 12 30 -4 40 -2 40 9
0 8 -4 14 -10 14 -6 0 -9 3 -9 8 5 29 -2 34 -38 27 -21 -4 -47 -8 -58 -9 -11
-2 -31 -7 -45 -13 -30 -13 -51 -6 -43 13 3 8 4 13 2 13 -2 -1 -14 -4 -26 -6z
m142 -33 c3 -5 2 -10 -4 -10 -5 0 -13 5 -16 10 -3 6 -2 10 4 10 5 0 13 -4 16
-10z"/>
<path d="M4180 1710 c0 -5 5 -10 11 -10 5 0 7 5 4 10 -3 6 -8 10 -11 10 -2 0
-4 -4 -4 -10z"/>
<path d="M4312 1700 c7 -11 16 -16 21 -11 12 12 0 31 -19 31 -12 0 -12 -3 -2
-20z"/>
<path d="M4328 1643 c6 -2 18 -2 25 0 6 3 1 5 -13 5 -14 0 -19 -2 -12 -5z"/>
<path d="M4236 1604 c-4 -9 -4 -19 -1 -22 2 -3 7 3 11 12 4 9 4 19 1 22 -2 3
-7 -3 -11 -12z"/>
<path d="M4275 1610 c-8 -13 -1 -24 14 -19 6 3 7 10 2 18 -6 10 -10 10 -16 1z"/>
<path d="M645 1570 c-3 -5 1 -10 9 -10 9 0 16 5 16 10 0 6 -4 10 -9 10 -6 0
-13 -4 -16 -10z"/>
<path d="M4315 1551 c-3 -5 -1 -12 5 -16 5 -3 10 1 10 9 0 18 -6 21 -15 7z"/>
<path d="M662 1539 c2 -7 10 -15 17 -17 8 -3 12 1 9 9 -2 7 -10 15 -17 17 -8
3 -12 -1 -9 -9z"/>
<path d="M4350 1534 c0 -8 5 -12 10 -9 6 4 8 11 5 16 -9 14 -15 11 -15 -7z"/>
<path d="M540 1525 c0 -6 5 -16 12 -23 6 -6 9 -15 5 -18 -3 -4 -13 1 -22 10
-20 20 -55 21 -55 1 0 -7 -8 -19 -17 -24 -10 -6 -12 -11 -5 -11 6 0 12 -5 12
-11 0 -5 -4 -7 -10 -4 -6 4 -10 -17 -10 -54 0 -48 -3 -61 -15 -61 -21 0 -19
-13 4 -27 15 -10 21 -10 24 0 3 7 6 4 6 -5 1 -10 5 -18 10 -18 5 0 7 -9 4 -20
-3 -11 -10 -20 -17 -20 -6 0 -4 -5 4 -10 11 -7 12 -12 4 -17 -7 -5 -14 -17
-17 -28 -4 -18 -5 -18 -6 3 -1 24 -29 30 -48 11 -7 -7 -15 -6 -26 5 -11 12
-17 13 -20 3 -3 -9 -8 -9 -17 -1 -12 12 -50 7 -50 -6 0 -5 -9 -12 -20 -15 -26
-8 -56 -63 -42 -77 15 -15 45 -1 38 17 -3 8 -1 15 3 15 5 0 11 -6 14 -12 3 -9
11 -5 26 11 11 13 21 19 21 12 0 -8 7 -10 19 -6 11 3 22 1 26 -5 9 -15 25 -12
25 5 0 25 18 17 32 -15 7 -16 19 -30 26 -30 7 0 10 4 7 10 -3 5 13 26 37 47
23 21 49 45 58 53 8 8 30 15 49 15 24 -1 35 4 39 17 2 10 11 18 18 18 8 0 20
11 26 25 7 16 14 21 18 14 9 -14 85 23 93 46 5 12 -1 15 -29 15 -19 0 -46 7
-60 16 -17 12 -45 17 -89 16 -65 -1 -92 12 -34 16 17 1 43 9 58 17 21 10 31
11 40 2 19 -19 13 8 -8 34 -10 13 -21 31 -24 39 -3 9 -6 10 -6 3 -1 -13 -41
-19 -41 -6 0 3 7 14 16 24 14 16 12 17 -35 16 -29 -1 -51 -6 -51 -12z m120
-59 c0 -3 -4 -8 -10 -11 -5 -3 -10 -1 -10 4 0 6 5 11 10 11 6 0 10 -2 10 -4z
m-180 -115 c0 -6 -4 -13 -10 -16 -5 -3 -10 1 -10 9 0 9 5 16 10 16 6 0 10 -4
10 -9z"/>
<path d="M720 1509 c0 -5 5 -7 10 -4 6 3 10 8 10 11 0 2 -4 4 -10 4 -5 0 -10
-5 -10 -11z"/>
<path d="M720 1480 c0 -5 5 -10 11 -10 5 0 7 5 4 10 -3 6 -8 10 -11 10 -2 0
-4 -4 -4 -10z"/>
<path d="M400 1300 c0 -5 5 -10 11 -10 5 0 7 5 4 10 -3 6 -8 10 -11 10 -2 0
-4 -4 -4 -10z"/>
<path d="M370 1290 c0 -5 5 -10 10 -10 6 0 10 5 10 10 0 6 -4 10 -10 10 -5 0
-10 -4 -10 -10z"/>
<path d="M3860 1234 c1 -23 18 -33 49 -29 34 4 48 11 40 20 -10 9 -89 17 -89
9z"/>
<path d="M4025 950 c-3 -5 1 -10 10 -10 9 0 13 5 10 10 -3 6 -8 10 -10 10 -2
0 -7 -4 -10 -10z"/>
</g>
</svg>
